PathFileType	4	(X/Y/Z)	OpenSim_Sub07_EMGStiffKnee_Magnet.trc
DataRate	CameraRate	NumFrames	NumMarkers	Units	OrigDataRate	OrigDataStartFrame	OrigNumFrames
100	100	13	8	m	100	4618	7388
Frame#	Time	torso_imu_offset_imu	pelvis_imu_offset_imu	tibia_r_imu_offset_imu	femur_r_imu_offset_imu	tibia_l_imu_offset_imu	femur_l_imu_offset_imu	toes_r_imu_offset_imu	toes_l_imu_offset_imu
				X1	Y1	Z1	X2	Y2	Z2	X3	Y3	Z3	X4	Y4	Z4	X5	Y5	Z5	X6	Y6	Z6	X7	Y7	Z7	X8		Y8	Z8	

4618	46.17000000	0.94114230	0.18982321	0.10818899	-0.67438224	0.09797826	-0.69895084	-0.47645444	-0.69583427	0.02992635	-0.71833634	-0.43258774	-0.15660962	-0.69887364	0.45507455	0.09455689	-0.77654544	0.10889285	0.37800950	-0.74394284	-0.40578338	-0.37293011	-0.68450974	-0.20417907	-0.45178935
4619	46.18000000	0.94092641	0.18733318	0.10667312	-0.66981227	0.10250249	-0.70237667	-0.47713707	-0.69820774	0.03031885	-0.70980910	-0.43856931	-0.16489538	-0.70488718	0.43737597	0.09581389	-0.77400749	0.10640454	0.37743631	-0.74297912	-0.40672175	-0.37151565	-0.67966793	-0.21217208	-0.45752124
4620	46.19000000	0.94126712	0.18564788	0.10787574	-0.67454881	0.09954639	-0.70196467	-0.47078641	-0.69814602	0.03201363	-0.70610399	-0.44564297	-0.16575657	-0.71295061	0.41772468	0.09662402	-0.77171874	0.10530166	0.37852133	-0.74551413	-0.40453741	-0.37186276	-0.66923826	-0.22480149	-0.46603471
4621	46.20000000	0.94017671	0.18679185	0.10906313	-0.67178387	0.09668187	-0.70103243	-0.46460433	-0.70462819	0.02721527	-0.69953982	-0.45715272	-0.16587787	-0.72319683	0.40537906	0.09780951	-0.77860404	0.09942345	0.37751252	-0.74652866	-0.41125609	-0.37283598	-0.66056023	-0.22962783	-0.47159295
4622	46.21000000	0.93860269	0.18463944	0.11212827	-0.67308288	0.09777114	-0.69910019	-0.45858134	-0.70495610	0.03191178	-0.69360053	-0.46045275	-0.17010765	-0.73184729	0.39867077	0.09703140	-0.78364181	0.09315558	0.38421540	-0.74228798	-0.41358702	-0.37789000	-0.65032171	-0.23060157	-0.47779298
4623	46.22000000	0.93962438	0.18547893	0.11972069	-0.67416505	0.10097331	-0.69988768	-0.45515233	-0.70954837	0.03431103	-0.69371996	-0.46401722	-0.16512207	-0.73859141	0.37771606	0.10306645	-0.78194373	0.09079108	0.37911982	-0.74605471	-0.41265890	-0.37586314	-0.64050622	-0.23869077	-0.49033356
4624	46.23000000	0.93628354	0.18365816	0.11571188	-0.67206402	0.09862892	-0.69857789	-0.45004752	-0.71499889	0.03212479	-0.68742346	-0.47033081	-0.16951867	-0.74228500	0.36859865	0.10681944	-0.77631835	0.08560753	0.37756476	-0.74939359	-0.41446252	-0.37476869	-0.63356322	-0.24398455	-0.49513130
4625	46.24000000	0.93309705	0.18491441	0.11381721	-0.67151565	0.09608084	-0.69715107	-0.44629757	-0.71870776	0.03143106	-0.68606827	-0.47203986	-0.17088027	-0.74656636	0.35753418	0.10267219	-0.77760176	0.08560890	0.37803155	-0.74726541	-0.41498324	-0.37394767	-0.62880702	-0.25245246	-0.49960993
4626	46.25000000	0.93927600	0.18513472	0.11237871	-0.67130444	0.09945816	-0.69599295	-0.43580059	-0.72036616	0.02649615	-0.68438380	-0.47401194	-0.18354104	-0.75064761	0.34511908	0.11051020	-0.77188508	0.09064875	0.38056930	-0.75271090	-0.41644619	-0.37311756	-0.62360565	-0.25867652	-0.50379244
4627	46.26000000	0.94058320	0.18119895	0.11304358	-0.67537230	0.10173370	-0.69636012	-0.42702177	-0.73284460	0.03235811	-0.68506431	-0.48076090	-0.18419706	-0.75481877	0.33989493	0.11613173	-0.76881061	0.08667622	0.38981999	-0.75445749	-0.41711784	-0.37580600	-0.61060439	-0.26528372	-0.50896609
4628	46.27000000	0.93893236	0.18774760	0.11123267	-0.67421375	0.10598152	-0.69443958	-0.41845887	-0.73893877	0.03290174	-0.68181839	-0.48172056	-0.18131040	-0.75365962	0.33428980	0.11590587	-0.76579525	0.09096771	0.38767337	-0.75229430	-0.41916280	-0.37124133	-0.60724069	-0.27217962	-0.51062583
4629	46.28000000	0.94309222	0.18759323	0.10526810	-0.67518030	0.10690557	-0.69274635	-0.41128185	-0.73905836	0.02984174	-0.67822097	-0.48113317	-0.18484797	-0.75614520	0.32101229	0.11653808	-0.76268477	0.09500103	0.39300527	-0.75696090	-0.42180083	-0.36670552	-0.60551283	-0.27738429	-0.50881996
4630	46.29000000	0.93945187	0.18591189	0.10583174	-0.67443303	0.11060137	-0.69631498	-0.40192242	-0.74399087	0.03383151	-0.68093805	-0.48184166	-0.18594101	-0.76663242	0.31908129	0.12256117	-0.76351880	0.09444036	0.38707661	-0.76390533	-0.42640600	-0.36705307	-0.59759071	-0.28328662	-0.51325921
